<?xml version="1.0" encoding="UTF-8" standalone="no"?>
<!DOCTYPE svg PUBLIC "-//W3C//DTD SVG 1.1//EN" "http://www.w3.org/Graphics/SVG/1.1/DTD/svg11.dtd">
<svg width="100%" height="100%" viewBox="0 0 159 196" version="1.1" xmlns="http://www.w3.org/2000/svg" xmlns:xlink="http://www.w3.org/1999/xlink" xml:space="preserve" xmlns:serif="http://www.serif.com/" style="fill-rule:evenodd;clip-rule:evenodd;stroke-miterlimit:2;">
    <g transform="matrix(4.16667,0,0,4.16667,2.41825,-0.795841)">
        <path d="M9.739,30.057C9.739,30.057 7.946,32.795 6.472,32.585C4.998,32.375 0.468,28.16 0.468,20.365C0.468,12.571 3.837,7.092 6.472,7.092C9.107,7.092 9.422,8.99 9.949,9.411" style="fill:white;fill-rule:nonzero;"/>
    </g>
    <g transform="matrix(4.16667,0,0,4.16667,2.41825,-0.795841)">
        <path d="M9.739,30.057C9.739,30.057 7.946,32.795 6.472,32.585C4.998,32.375 0.468,28.16 0.468,20.365C0.468,12.571 3.837,7.092 6.472,7.092C9.107,7.092 9.422,8.99 9.949,9.411" style="fill:none;stroke:rgb(35,31,32);stroke-width:0.94px;"/>
    </g>
    <g transform="matrix(4.16667,0,0,4.16667,2.41825,-0.795841)">
        <path d="M3.31,30.269C3.31,30.269 4.364,15.202 9.421,18.47" style="fill:none;stroke:rgb(35,31,32);stroke-width:0.94px;"/>
    </g>
    <g transform="matrix(4.16667,0,0,4.16667,2.41825,-0.795841)">
        <path d="M1.943,27.739C1.943,27.739 3.101,10.465 9.527,15.415" style="fill:none;stroke:rgb(35,31,32);stroke-width:0.94px;"/>
    </g>
    <g transform="matrix(4.16667,0,0,4.16667,2.41825,-0.795841)">
        <path d="M0.468,21.103C0.468,21.103 3.417,6.673 9.421,12.255" style="fill:none;stroke:rgb(35,31,32);stroke-width:0.94px;"/>
    </g>
    <g transform="matrix(4.16667,0,0,4.16667,2.41825,-0.795841)">
        <path d="M5.314,20.999C5.314,20.999 5.84,29.214 9.421,23.105" style="fill:none;stroke:rgb(35,31,32);stroke-width:0.94px;"/>
    </g>
    <g transform="matrix(4.16667,0,0,4.16667,2.41825,-0.795841)">
        <path d="M4.049,25.421C4.049,25.421 4.787,33.427 9.527,26.685" style="fill:none;stroke:rgb(35,31,32);stroke-width:0.94px;"/>
    </g>
    <g transform="matrix(4.16667,0,0,4.16667,2.41825,-0.795841)">
        <path d="M27.024,29.953C27.024,29.953 28.815,32.691 30.291,32.479C31.763,32.268 36.294,28.055 36.294,20.261C36.294,12.465 32.922,6.988 30.291,6.988C27.657,6.988 27.34,8.883 26.811,9.305" style="fill:white;fill-rule:nonzero;"/>
    </g>
    <g transform="matrix(4.16667,0,0,4.16667,2.41825,-0.795841)">
        <path d="M27.024,29.953C27.024,29.953 28.815,32.691 30.291,32.479C31.763,32.268 36.294,28.055 36.294,20.261C36.294,12.465 32.922,6.988 30.291,6.988C27.657,6.988 27.34,8.883 26.811,9.305" style="fill:none;stroke:rgb(35,31,32);stroke-width:0.94px;"/>
    </g>
    <g transform="matrix(4.16667,0,0,4.16667,2.41825,-0.795841)">
        <path d="M33.45,30.163C33.45,30.163 32.395,15.098 27.34,18.364" style="fill:none;stroke:rgb(35,31,32);stroke-width:0.94px;"/>
    </g>
    <g transform="matrix(4.16667,0,0,4.16667,2.41825,-0.795841)">
        <path d="M34.818,27.635C34.818,27.635 33.661,10.359 27.235,15.311" style="fill:none;stroke:rgb(35,31,32);stroke-width:0.94px;"/>
    </g>
    <g transform="matrix(4.16667,0,0,4.16667,2.41825,-0.795841)">
        <path d="M36.294,20.999C36.294,20.999 33.346,6.566 27.34,12.149" style="fill:none;stroke:rgb(35,31,32);stroke-width:0.94px;"/>
    </g>
    <g transform="matrix(4.16667,0,0,4.16667,2.41825,-0.795841)">
        <path d="M31.45,20.893C31.45,20.893 30.921,29.111 27.34,23" style="fill:none;stroke:rgb(35,31,32);stroke-width:0.94px;"/>
    </g>
    <g transform="matrix(4.16667,0,0,4.16667,2.41825,-0.795841)">
        <path d="M32.712,25.316C32.712,25.316 31.974,33.322 27.235,26.581" style="fill:none;stroke:rgb(35,31,32);stroke-width:0.94px;"/>
    </g>
    <g transform="matrix(4.16667,0,0,4.16667,2.41825,-0.795841)">
        <rect x="8.895" y="8.251" width="18.75" height="22.438" style="fill:rgb(35,31,32);fill-rule:nonzero;"/>
    </g>
    <g transform="matrix(4.16667,0,0,4.16667,2.41825,-0.795841)">
        <path d="M15.485,18.369C15.512,17.396 15.762,16.686 16.248,16.239C16.735,15.779 17.458,15.555 18.405,15.555C20.693,15.555 21.337,16.489 21.337,18.132C21.337,18.895 21.008,19.763 20.036,19.987L20.036,20.013C21.139,20.21 21.508,21.052 21.508,22.051C21.508,24.142 20.483,25.049 18.47,25.049C16.354,25.049 15.38,24.326 15.38,22.078L17.669,22.078C17.669,22.603 17.734,22.945 17.839,23.182C17.944,23.419 18.129,23.524 18.392,23.524C18.957,23.524 19.062,23.248 19.062,22.078C19.062,21.157 18.786,20.92 18.168,20.92L17.55,20.92L17.55,19.395L17.905,19.395C18.629,19.395 18.97,19.158 18.97,18.08C18.97,17.317 18.773,17.081 18.352,17.081C17.879,17.081 17.694,17.383 17.694,18.369L15.485,18.369Z" style="fill:white;fill-rule:nonzero;"/>
    </g>
    <g transform="matrix(4.16667,0,0,4.16667,2.41825,-0.795841)">
        <path d="M9.982,5.287L9.982,0.289L10.989,0.289L10.989,4.461L12.775,4.461L12.775,5.287L9.982,5.287Z" style="fill:rgb(35,31,32);fill-rule:nonzero;"/>
    </g>
    <g transform="matrix(4.16667,0,0,4.16667,2.41825,-0.795841)">
        <rect x="13.272" y="0.289" width="1.007" height="4.998" style="fill:rgb(35,31,32);fill-rule:nonzero;"/>
    </g>
    <g transform="matrix(4.16667,0,0,4.16667,2.41825,-0.795841)">
        <path d="M17.247,1.773C17.247,1.402 17.079,0.933 16.673,0.933C16.183,0.933 15.987,1.437 15.987,2.683C15.987,3.887 16.099,4.643 16.68,4.643C16.919,4.643 17.303,4.384 17.303,3.845L17.303,3.334L16.638,3.334L16.638,2.592L18.269,2.592L18.269,5.287L17.527,5.287L17.527,4.825L17.513,4.825C17.276,5.217 16.932,5.385 16.463,5.385C15.224,5.385 14.98,4.461 14.98,2.732C14.98,1.052 15.371,0.191 16.659,0.191C17.765,0.191 18.213,0.758 18.213,1.773L17.247,1.773Z" style="fill:rgb(35,31,32);fill-rule:nonzero;"/>
    </g>
    <g transform="matrix(4.16667,0,0,4.16667,2.41825,-0.795841)">
        <path d="M18.921,0.289L19.928,0.289L19.928,2.2L21.104,2.2L21.104,0.289L22.112,0.289L22.112,5.287L21.104,5.287L21.104,3.068L19.928,3.068L19.928,5.287L18.921,5.287L18.921,0.289Z" style="fill:rgb(35,31,32);fill-rule:nonzero;"/>
    </g>
    <g transform="matrix(4.16667,0,0,4.16667,2.41825,-0.795841)">
        <path d="M25.739,0.289L25.739,1.115L24.647,1.115L24.647,5.287L23.638,5.287L23.638,1.115L22.546,1.115L22.546,0.289L25.739,0.289Z" style="fill:rgb(35,31,32);fill-rule:nonzero;"/>
    </g>
    <g transform="matrix(4.16667,0,0,4.16667,2.41825,-0.795841)">
        <path d="M7.948,34.109L8.631,34.109L8.631,38.243L10.884,38.243L10.884,38.75L7.948,38.75L7.948,34.109Z" style="fill:rgb(35,31,32);fill-rule:nonzero;"/>
    </g>
    <g transform="matrix(4.16667,0,0,4.16667,2.41825,-0.795841)">
        <path d="M11.397,34.109L14.262,34.109L14.262,34.616L12.08,34.616L12.08,36.072L14.138,36.072L14.138,36.579L12.08,36.579L12.08,38.243L14.356,38.243L14.356,38.75L11.397,38.75L11.397,34.109Z" style="fill:rgb(35,31,32);fill-rule:nonzero;"/>
    </g>
    <g transform="matrix(4.16667,0,0,4.16667,2.41825,-0.795841)">
        <path d="M17.626,35.396C17.594,34.908 17.377,34.486 16.701,34.486C15.754,34.486 15.63,35.357 15.63,36.429C15.63,37.501 15.754,38.373 16.701,38.373C17.649,38.373 17.718,37.423 17.718,36.806L16.624,36.806L16.624,36.337L18.34,36.337L18.34,38.75L17.827,38.75L17.827,38.119L17.812,38.119C17.664,38.515 17.221,38.84 16.616,38.84C15.171,38.84 14.915,37.677 14.915,36.429C14.915,35.259 15.171,34.017 16.701,34.017C18.293,34.017 18.332,35.155 18.34,35.396L17.626,35.396Z" style="fill:rgb(35,31,32);fill-rule:nonzero;"/>
    </g>
    <g transform="matrix(4.16667,0,0,4.16667,2.41825,-0.795841)">
        <path d="M19.163,34.109L22.029,34.109L22.029,34.616L19.846,34.616L19.846,36.072L21.905,36.072L21.905,36.579L19.846,36.579L19.846,38.243L22.122,38.243L22.122,38.75L19.163,38.75L19.163,34.109Z" style="fill:rgb(35,31,32);fill-rule:nonzero;"/>
    </g>
    <g transform="matrix(4.16667,0,0,4.16667,2.41825,-0.795841)">
        <path d="M23.442,36.214L24.118,36.214C24.522,36.214 25.26,36.214 25.26,35.318C25.26,34.863 24.895,34.577 24.258,34.577L23.442,34.577L23.442,36.214ZM22.758,34.109L24.553,34.109C25.422,34.109 25.974,34.538 25.974,35.272C25.974,35.779 25.764,36.312 25.12,36.442L25.12,36.455C25.602,36.5 25.874,36.832 25.905,37.228L25.952,38.021C25.982,38.535 26.083,38.666 26.247,38.75L25.422,38.75C25.307,38.652 25.253,38.308 25.237,38.08L25.19,37.359C25.135,36.722 24.716,36.683 24.367,36.683L23.442,36.683L23.442,38.75L22.758,38.75L22.758,34.109Z" style="fill:rgb(35,31,32);fill-rule:nonzero;"/>
    </g>
    <g transform="matrix(4.16667,0,0,4.16667,2.41825,-0.795841)">
        <path d="M8.822,41.164L9.505,41.164L9.505,45.298L11.758,45.298L11.758,45.804L8.822,45.804L8.822,41.164Z" style="fill:rgb(35,31,32);fill-rule:nonzero;"/>
    </g>
    <g transform="matrix(4.16667,0,0,4.16667,2.41825,-0.795841)">
        <path d="M12.286,45.804L12.939,45.804L12.939,42.321L12.286,42.321L12.286,45.804ZM12.286,41.788L12.939,41.788L12.939,41.164L12.286,41.164L12.286,41.788Z" style="fill:rgb(35,31,32);fill-rule:nonzero;"/>
    </g>
    <g transform="matrix(4.16667,0,0,4.16667,2.41825,-0.795841)">
        <path d="M14.359,44.062C14.359,44.628 14.461,45.337 15.113,45.337C15.82,45.337 15.96,44.778 15.96,44.062C15.96,43.386 15.82,42.698 15.121,42.698C14.515,42.698 14.359,43.23 14.359,44.062ZM16.573,45.583C16.573,46.624 15.999,47 15.16,47C14.903,47 13.901,47 13.793,46.13L14.445,46.13C14.476,46.449 14.771,46.572 15.113,46.572C15.952,46.572 15.921,46.033 15.921,45.792L15.921,45.337L15.905,45.337C15.765,45.629 15.377,45.804 14.965,45.804C13.754,45.804 13.676,44.525 13.676,44.062C13.676,43.121 13.979,42.23 15.035,42.23C15.486,42.23 15.851,42.49 15.936,42.763L15.952,42.763L15.952,42.321L16.573,42.321L16.573,45.583Z" style="fill:rgb(35,31,32);fill-rule:nonzero;"/>
    </g>
    <g transform="matrix(4.16667,0,0,4.16667,2.41825,-0.795841)">
        <path d="M19.478,43.699L19.478,43.51C19.478,43.121 19.331,42.659 18.755,42.659C18.072,42.659 17.995,43.361 17.995,43.569L17.995,43.699L19.478,43.699ZM17.971,44.127C17.971,44.661 17.971,45.466 18.771,45.466C19.393,45.466 19.478,44.921 19.478,44.661L20.13,44.661C20.13,45.031 19.866,45.896 18.733,45.896C17.715,45.896 17.288,45.304 17.288,44.109C17.288,43.238 17.49,42.23 18.771,42.23C20.046,42.23 20.161,43.16 20.161,43.907L20.161,44.127L17.971,44.127Z" style="fill:rgb(35,31,32);fill-rule:nonzero;"/>
    </g>
    <g transform="matrix(4.16667,0,0,4.16667,2.41825,-0.795841)">
        <path d="M20.876,42.321L21.528,42.321L21.528,42.841L21.544,42.841C21.73,42.509 21.979,42.23 22.445,42.23C22.577,42.23 22.671,42.243 22.732,42.269L22.732,42.802C22.671,42.795 22.592,42.776 22.382,42.776C22.056,42.776 21.528,43.023 21.528,43.601L21.528,45.804L20.876,45.804L20.876,42.321Z" style="fill:rgb(35,31,32);fill-rule:nonzero;"/>
    </g>
    <g transform="matrix(4.16667,0,0,4.16667,2.41825,-0.795841)">
        <path d="M25.288,44.062C25.288,43.308 25.155,42.659 24.456,42.659C23.796,42.659 23.657,43.308 23.657,44.062C23.657,44.817 23.788,45.466 24.456,45.466C25.147,45.466 25.288,44.817 25.288,44.062ZM24.471,42.23C25.675,42.23 25.971,43.082 25.971,44.062C25.971,45.044 25.668,45.896 24.471,45.896C23.268,45.896 22.973,45.044 22.973,44.062C22.973,43.082 23.276,42.23 24.471,42.23Z" style="fill:rgb(35,31,32);fill-rule:nonzero;"/>
    </g>
    <g transform="matrix(4.16667,0,0,4.16667,2.41825,-0.795841)">
        <path d="M13.835,32.991L12.983,33.92L12.567,33.92L13.126,32.991L13.835,32.991Z" style="fill:rgb(35,31,32);fill-rule:nonzero;"/>
    </g>
</svg>
