<?xml version="1.0" encoding="UTF-8" standalone="no"?>
<!DOCTYPE svg PUBLIC "-//W3C//DTD SVG 1.1//EN" "http://www.w3.org/Graphics/SVG/1.1/DTD/svg11.dtd">
<svg width="100%" height="100%" viewBox="0 0 80 80" version="1.1" xmlns="http://www.w3.org/2000/svg" xmlns:xlink="http://www.w3.org/1999/xlink" xml:space="preserve" xmlns:serif="http://www.serif.com/" style="fill-rule:evenodd;clip-rule:evenodd;stroke-linecap:round;">
    <g transform="matrix(1,0,0,1,0,1.16706)">
        <g transform="matrix(5.55556,0,0,5.55556,9.60044,48.5414)">
            <path d="M0,-6.908L0.969,0.047L9.856,0.047L10.954,-6.955" style="fill:none;fill-rule:nonzero;stroke:rgb(35,31,32);stroke-width:0.49px;"/>
        </g>
        <g transform="matrix(5.55556,0,0,5.55556,15.2321,18.5687)">
            <path d="M0,-0.886C0.907,-0.886 0.907,0 1.812,0C2.712,0 2.712,-0.886 3.613,-0.886C4.508,-0.886 4.508,0 5.404,0C6.29,0 6.29,-0.886 7.179,-0.886C8.033,-0.886 8.033,0 8.888,0" style="fill:none;fill-rule:nonzero;stroke:rgb(35,31,32);stroke-width:0.49px;"/>
        </g>
        <g transform="matrix(5.55556,0,0,5.55556,-1274.57,-998.775)">
            <g transform="matrix(2.9234,0,0,2.9802,233.353,186.953)">
                <path d="M0.384,-0L0.384,-0.193L0.047,-0.193L0.047,-0.301L0.378,-0.723L0.511,-0.723L0.511,-0.301L0.595,-0.301L0.595,-0.193L0.511,-0.193L0.511,-0L0.384,-0ZM0.163,-0.301L0.387,-0.301L0.387,-0.584L0.163,-0.301Z" style="fill:rgb(35,31,32);fill-rule:nonzero;"/>
            </g>
            <g transform="matrix(2.9234,0,0,2.9802,235.007,186.953)">
                <path d="M0.327,0.018C0.245,0.018 0.178,-0.017 0.127,-0.087C0.075,-0.158 0.05,-0.249 0.05,-0.361C0.05,-0.475 0.076,-0.567 0.127,-0.636C0.178,-0.706 0.246,-0.741 0.33,-0.741C0.413,-0.741 0.481,-0.706 0.532,-0.636C0.584,-0.567 0.61,-0.476 0.61,-0.363C0.61,-0.248 0.584,-0.155 0.532,-0.086C0.481,-0.017 0.412,0.018 0.327,0.018ZM0.328,-0.072C0.414,-0.072 0.457,-0.169 0.457,-0.361C0.457,-0.554 0.414,-0.65 0.33,-0.65C0.246,-0.65 0.204,-0.554 0.204,-0.362C0.204,-0.169 0.245,-0.072 0.328,-0.072Z" style="fill:rgb(35,31,32);fill-rule:nonzero;"/>
            </g>
            <g transform="matrix(2.9234,0,0,2.9802,236.661,186.953)">
                <path d="M0.215,-0.494C0.176,-0.494 0.143,-0.508 0.115,-0.537C0.086,-0.565 0.072,-0.599 0.072,-0.639C0.072,-0.678 0.086,-0.712 0.115,-0.741C0.143,-0.769 0.177,-0.783 0.217,-0.783C0.257,-0.783 0.291,-0.769 0.319,-0.741C0.347,-0.712 0.361,-0.678 0.361,-0.639C0.361,-0.598 0.347,-0.564 0.319,-0.536C0.291,-0.508 0.256,-0.494 0.215,-0.494ZM0.216,-0.566C0.236,-0.566 0.254,-0.573 0.268,-0.587C0.282,-0.601 0.289,-0.618 0.289,-0.639C0.289,-0.659 0.282,-0.676 0.268,-0.69C0.254,-0.704 0.237,-0.711 0.217,-0.711C0.197,-0.711 0.18,-0.704 0.166,-0.69C0.152,-0.676 0.145,-0.659 0.145,-0.639C0.145,-0.619 0.152,-0.602 0.166,-0.588C0.18,-0.573 0.197,-0.566 0.216,-0.566Z" style="fill:rgb(35,31,32);fill-rule:nonzero;"/>
            </g>
            <g transform="matrix(2.9234,0,0,2.9802,237.655,186.953)">
                <path d="M0.672,-0.029C0.602,0.002 0.518,0.018 0.421,0.018C0.303,0.018 0.211,-0.015 0.145,-0.082C0.078,-0.149 0.045,-0.242 0.045,-0.361C0.045,-0.483 0.079,-0.577 0.145,-0.642C0.212,-0.708 0.307,-0.741 0.43,-0.741C0.509,-0.741 0.587,-0.731 0.665,-0.713L0.665,-0.595C0.577,-0.626 0.503,-0.642 0.443,-0.642C0.367,-0.642 0.308,-0.617 0.267,-0.569C0.226,-0.521 0.205,-0.452 0.205,-0.363C0.205,-0.276 0.227,-0.208 0.272,-0.159C0.316,-0.11 0.378,-0.086 0.457,-0.086C0.528,-0.086 0.6,-0.104 0.672,-0.14L0.672,-0.029Z" style="fill:rgb(35,31,32);fill-rule:nonzero;"/>
            </g>
            <g transform="matrix(2.9234,0,0,2.9802,232.64,191.923)">
                <path d="M0.141,-0L0.141,-0.084L0.285,-0.084L0.285,-0.618L0.141,-0.582L0.141,-0.668L0.43,-0.741L0.43,-0.084L0.575,-0.084L0.575,-0L0.141,-0Z" style="fill:rgb(35,31,32);fill-rule:nonzero;"/>
            </g>
            <g transform="matrix(2.9234,0,0,2.9802,234.287,191.923)">
                <path d="M0.327,0.018C0.245,0.018 0.178,-0.017 0.127,-0.087C0.075,-0.158 0.05,-0.249 0.05,-0.361C0.05,-0.475 0.076,-0.567 0.127,-0.636C0.178,-0.706 0.246,-0.741 0.33,-0.741C0.413,-0.741 0.481,-0.706 0.532,-0.636C0.584,-0.567 0.61,-0.476 0.61,-0.363C0.61,-0.248 0.584,-0.155 0.532,-0.086C0.481,-0.017 0.412,0.018 0.327,0.018ZM0.328,-0.072C0.414,-0.072 0.457,-0.169 0.457,-0.361C0.457,-0.554 0.414,-0.65 0.33,-0.65C0.246,-0.65 0.204,-0.554 0.204,-0.362C0.204,-0.169 0.245,-0.072 0.328,-0.072Z" style="fill:rgb(35,31,32);fill-rule:nonzero;"/>
            </g>
            <g transform="matrix(2.9234,0,0,2.9802,235.935,191.923)">
                <path d="M0.384,-0L0.384,-0.193L0.047,-0.193L0.047,-0.301L0.378,-0.723L0.511,-0.723L0.511,-0.301L0.595,-0.301L0.595,-0.193L0.511,-0.193L0.511,-0L0.384,-0ZM0.163,-0.301L0.387,-0.301L0.387,-0.584L0.163,-0.301Z" style="fill:rgb(35,31,32);fill-rule:nonzero;"/>
            </g>
            <g transform="matrix(2.9234,0,0,2.9802,237.583,191.923)">
                <path d="M0.215,-0.494C0.176,-0.494 0.143,-0.508 0.115,-0.537C0.086,-0.565 0.072,-0.599 0.072,-0.639C0.072,-0.678 0.086,-0.712 0.115,-0.741C0.143,-0.769 0.177,-0.783 0.217,-0.783C0.257,-0.783 0.291,-0.769 0.319,-0.741C0.347,-0.712 0.361,-0.678 0.361,-0.639C0.361,-0.598 0.347,-0.564 0.319,-0.536C0.291,-0.508 0.256,-0.494 0.215,-0.494ZM0.216,-0.566C0.236,-0.566 0.254,-0.573 0.268,-0.587C0.282,-0.601 0.289,-0.618 0.289,-0.639C0.289,-0.659 0.282,-0.676 0.268,-0.69C0.254,-0.704 0.237,-0.711 0.217,-0.711C0.197,-0.711 0.18,-0.704 0.166,-0.69C0.152,-0.676 0.145,-0.659 0.145,-0.639C0.145,-0.619 0.152,-0.602 0.166,-0.588C0.18,-0.573 0.197,-0.566 0.216,-0.566Z" style="fill:rgb(35,31,32);fill-rule:nonzero;"/>
            </g>
            <g transform="matrix(2.9234,0,0,2.9802,238.57,191.923)">
                <path d="M0.09,-0L0.09,-0.723L0.545,-0.723L0.545,-0.624L0.241,-0.624L0.241,-0.404L0.491,-0.404L0.491,-0.304L0.241,-0.304L0.241,-0L0.09,-0Z" style="fill:rgb(35,31,32);fill-rule:nonzero;"/>
            </g>
        </g>
    </g>
</svg>
