<?xml version="1.0" encoding="UTF-8" standalone="no"?>
<!DOCTYPE svg PUBLIC "-//W3C//DTD SVG 1.1//EN" "http://www.w3.org/Graphics/SVG/1.1/DTD/svg11.dtd">
<svg width="100%" height="100%" viewBox="0 0 80 80" version="1.1" xmlns="http://www.w3.org/2000/svg" xmlns:xlink="http://www.w3.org/1999/xlink" xml:space="preserve" xmlns:serif="http://www.serif.com/" style="fill-rule:evenodd;clip-rule:evenodd;stroke-linecap:round;">
    <g transform="matrix(0.515883,0,0,0.554134,18.9086,15.2942)">
        <g>
            <g transform="matrix(5.53227,0,0,5.15039,-21.521,72.5475)">
                <path d="M0,-14.236L2.032,0.096L20.657,0.096L22.957,-14.332" style="fill:none;fill-rule:nonzero;stroke:rgb(35,31,32);stroke-width:1.49px;"/>
            </g>
            <g transform="matrix(5.53227,0,0,5.15039,14.556,54.7802)">
                <path d="M0,0.687L0,-0.196C0,-0.435 0.012,-0.68 0.031,-0.938L0.006,-0.938C-0.123,-0.68 -0.227,-0.448 -0.362,-0.196L-0.896,0.675L-0.896,0.687L0,0.687ZM0,2.337L0,1.386L-1.767,1.386L-1.767,0.78L-0.258,-1.65L0.883,-1.65L0.883,0.687L1.362,0.687L1.362,1.386L0.883,1.386L0.883,2.337L0,2.337Z" style="fill:rgb(35,31,32);fill-rule:nonzero;"/>
            </g>
            <g transform="matrix(5.53227,0,0,5.15039,29.092,56.5216)">
                <path d="M0,0.012C-0.006,0.926 0.215,1.362 0.577,1.362C0.938,1.362 1.135,0.908 1.135,-0.001C1.135,-0.884 0.945,-1.35 0.57,-1.35C0.227,-1.35 -0.006,-0.915 0,0.012M2.067,-0.012C2.067,1.22 1.57,2.067 0.552,2.067C-0.479,2.067 -0.932,1.141 -0.938,0.012C-0.938,-1.141 -0.448,-2.055 0.583,-2.055C1.65,-2.055 2.067,-1.104 2.067,-0.012" style="fill:rgb(35,31,32);fill-rule:nonzero;"/>
            </g>
            <g transform="matrix(5.53227,0,0,5.15039,45.254,49.7921)">
                <path d="M0,0.012C0,0.276 0.19,0.478 0.442,0.478C0.693,0.478 0.877,0.276 0.877,0.006C0.877,-0.233 0.724,-0.467 0.442,-0.467C0.172,-0.467 0,-0.24 0,0.012M1.374,-0.001C1.374,0.528 0.938,0.908 0.436,0.908C-0.104,0.908 -0.491,0.509 -0.491,0.018C-0.497,-0.491 -0.08,-0.896 0.442,-0.896C0.994,-0.896 1.374,-0.485 1.374,-0.001" style="fill:rgb(35,31,32);fill-rule:nonzero;"/>
            </g>
            <g transform="matrix(5.53227,0,0,5.15039,72.7289,46.0926)">
                <path d="M0,3.908C-0.172,3.994 -0.559,4.086 -1.062,4.086C-2.491,4.086 -3.227,3.196 -3.227,2.018C-3.227,0.607 -2.221,-0.178 -0.97,-0.178C-0.485,-0.178 -0.117,-0.079 0.049,0.007L-0.142,0.749C-0.332,0.669 -0.596,0.595 -0.927,0.595C-1.669,0.595 -2.245,1.043 -2.245,1.964C-2.245,2.791 -1.755,3.312 -0.921,3.312C-0.639,3.312 -0.325,3.252 -0.142,3.178L0,3.908Z" style="fill:rgb(35,31,32);fill-rule:nonzero;"/>
            </g>
            <g transform="matrix(5.53227,0,0,5.15039,3.75922,100.99)">
                <path d="M0,-2.331L-0.012,-2.331L-0.773,-1.969L-0.926,-2.668L0.129,-3.159L0.901,-3.159L0.901,0.828L0,0.828L0,-2.331Z" style="fill:rgb(35,31,32);fill-rule:nonzero;"/>
            </g>
            <g transform="matrix(5.53227,0,0,5.15039,20.8395,94.9584)">
                <path d="M0,0.012C-0.006,0.926 0.215,1.362 0.577,1.362C0.938,1.362 1.135,0.908 1.135,-0.001C1.135,-0.884 0.945,-1.35 0.57,-1.35C0.227,-1.35 -0.006,-0.915 0,0.012M2.067,-0.012C2.067,1.22 1.57,2.067 0.552,2.067C-0.479,2.067 -0.932,1.141 -0.938,0.012C-0.938,-1.141 -0.448,-2.055 0.583,-2.055C1.65,-2.055 2.067,-1.104 2.067,-0.012" style="fill:rgb(35,31,32);fill-rule:nonzero;"/>
            </g>
            <g transform="matrix(5.53227,0,0,5.15039,43.9246,93.2171)">
                <path d="M0,0.687L0,-0.196C0,-0.435 0.012,-0.68 0.031,-0.938L0.006,-0.938C-0.123,-0.68 -0.227,-0.448 -0.362,-0.196L-0.896,0.675L-0.896,0.687L0,0.687ZM0,2.337L0,1.386L-1.767,1.386L-1.767,0.78L-0.258,-1.65L0.883,-1.65L0.883,0.687L1.362,0.687L1.362,1.386L0.883,1.386L0.883,2.337L0,2.337Z" style="fill:rgb(35,31,32);fill-rule:nonzero;"/>
            </g>
            <g transform="matrix(5.53227,0,0,5.15039,55.8134,88.2289)">
                <path d="M0,0.012C0,0.276 0.19,0.478 0.441,0.478C0.693,0.478 0.877,0.276 0.877,0.006C0.877,-0.233 0.724,-0.467 0.441,-0.467C0.172,-0.467 0,-0.24 0,0.012M1.374,-0.001C1.374,0.528 0.938,0.908 0.436,0.908C-0.104,0.908 -0.491,0.509 -0.491,0.018C-0.497,-0.491 -0.08,-0.896 0.441,-0.896C0.993,-0.896 1.374,-0.485 1.374,-0.001" style="fill:rgb(35,31,32);fill-rule:nonzero;"/>
            </g>
            <g transform="matrix(5.53227,0,0,5.15039,66.4835,105.257)">
                <path d="M0,-4.135L2.527,-4.135L2.527,-3.367L0.938,-3.367L0.938,-2.423L2.423,-2.423L2.423,-1.662L0.938,-1.662L0.938,0L0,0L0,-4.135Z" style="fill:rgb(35,31,32);fill-rule:nonzero;"/>
            </g>
            <g transform="matrix(5.53227,0,0,5.15039,64.8664,39.6134)">
                <path d="M0,-12.946L-2.009,-10.462C-2.009,-10.462 -3.985,-10.596 -5.761,-8.327C-6.513,-7.368 -7.637,-6.005 -6.725,-6.097C-5.813,-6.188 -4.338,-7.514 -4.338,-7.514L-7.336,-3.168C-7.336,-3.168 -7.172,-1.505 -6.174,-2.194L-4.23,-4.794L-6.12,-2.027C-6.12,-2.027 -6.122,-1.056 -4.878,-1.11L-2.956,-3.964L-4.662,-1.108C-4.662,-1.108 -4.724,0.027 -3.503,-0.528L-1.753,-3.168L-2.838,-0.73C-2.838,-0.73 -2.192,0.041 -1.579,-0.784C-0.968,-1.61 2.109,-4.601 1.934,-6.077C1.76,-7.553 2.042,-7.485 2.042,-7.485L6.174,-12.987" style="fill:none;fill-rule:nonzero;stroke:rgb(35,31,32);stroke-width:1.24px;stroke-linejoin:round;"/>
            </g>
            <g transform="matrix(4.77882,2.59487,2.78727,-4.44895,84.0065,5.83932)">
                <path d="M-0.169,-0.623C0.616,-0.785 1.337,-1.189 2.307,-0.623" style="fill:none;fill-rule:nonzero;stroke:rgb(35,31,32);stroke-width:1.49px;"/>
            </g>
            <g transform="matrix(5.53227,0,0,5.15039,-9.76054,14.6)">
                <path d="M0,-1.824C1.901,-1.824 1.901,0 3.798,0C4.741,0 4.909,-0.456 5.383,-0.912" style="fill:none;fill-rule:nonzero;stroke:rgb(35,31,32);stroke-width:1.49px;"/>
            </g>
        </g>
    </g>
</svg>
