<?xml version="1.0" encoding="UTF-8" standalone="no"?>
<!DOCTYPE svg PUBLIC "-//W3C//DTD SVG 1.1//EN" "http://www.w3.org/Graphics/SVG/1.1/DTD/svg11.dtd">
<svg width="100%" height="100%" viewBox="0 0 80 80" version="1.1" xmlns="http://www.w3.org/2000/svg" xmlns:xlink="http://www.w3.org/1999/xlink" xml:space="preserve" xmlns:serif="http://www.serif.com/" style="fill-rule:evenodd;clip-rule:evenodd;">
    <g>
        <g transform="matrix(-5.55556,0,0,5.55556,1513.41,-690.786)">
            <rect x="260.061" y="126.368" width="10.4" height="10.604" style="fill:none;stroke:rgb(35,31,32);stroke-width:0.5px;"/>
        </g>
        <g transform="matrix(-3.89036,3.96601,3.96601,3.89036,40.9119,87.3185)">
            <path d="M-14.484,-6.082L2.553,-6.082" style="fill:none;fill-rule:nonzero;stroke:rgb(35,31,32);stroke-width:0.49px;stroke-linecap:round;"/>
        </g>
        <g transform="matrix(3.89036,3.96601,3.96601,-3.89036,40.9108,-7.3185)">
            <path d="M-2.553,-6.082L14.484,-6.082" style="fill:none;fill-rule:nonzero;stroke:rgb(35,31,32);stroke-width:0.49px;stroke-linecap:round;"/>
        </g>
        <g transform="matrix(5.55556,0,0,5.55556,59.1422,30.3456)">
            <path d="M0,3.96L-0.592,1.912L-3.697,1.912C-5.54,1.912 -6.609,2.595 -6.904,3.96L0,3.96ZM0.94,4.543L-7.742,4.543C-7.609,3.507 -7.246,2.728 -6.65,2.204C-5.985,1.621 -5.001,1.33 -3.697,1.33L-0.762,1.33L-1.148,-0.001L-5.484,-0.001C-5.584,-0.001 -5.671,-0.029 -5.743,-0.089C-5.814,-0.147 -5.851,-0.217 -5.851,-0.296C-5.851,-0.374 -5.814,-0.441 -5.743,-0.499C-5.671,-0.555 -5.584,-0.583 -5.484,-0.583L-0.565,-0.583L0.94,4.543Z" style="fill:rgb(35,31,32);fill-rule:nonzero;"/>
        </g>
    </g>
</svg>
